<?xml version="1.0" encoding="utf-8"?>
<!-- Generator: Adobe Illustrator 13.0.0, SVG Export Plug-In . SVG Version: 6.00 Build 14948)  -->
<!DOCTYPE svg PUBLIC "-//W3C//DTD SVG 1.1//EN" "http://www.w3.org/Graphics/SVG/1.1/DTD/svg11.dtd">
<svg version="1.1" id="Calque_1" xmlns="http://www.w3.org/2000/svg" xmlns:xlink="http://www.w3.org/1999/xlink" x="0px" y="0px" viewBox="0 0 301.629 56.708" enable-background="new 0 0 301.629 56.708"
	 xml:space="preserve">
<g transform="scale(0.5)">
	<g>
		<g>
			<path fill="none" d="M1.637,35.426c0,0,155.249-30.5,298.249-0.5"/>
			<g>
				<g>
					<path fill="#4A7362" d="M5.818,56.708c20.104-3.693,41.796-6.501,62.905-8.628l-8.814-1.888
						c-9.157-1.91-18.376-3.694-27.654-5.325L30.039,24.94l-0.362-2.604C19.775,23.728,10.045,25.207,0,27.093
						c1.418,0.618,2.698,1.276,4.025,1.929c6.547,3.271,12.936,6.679,19.263,10.147c-5.032,4.682-10.005,9.409-14.724,14.192
						C7.616,54.476,6.542,55.621,5.818,56.708z"/>
					<path fill="#608576" d="M27.861,9.266l0.444,3.197l3.471,24.954l0.479,3.449c78.553-10.515,158.904-12.859,236.961-1.116
						l0.532-3.441l3.85-24.899l0.493-3.189C191.724-4.116,109.167-1.574,27.861,9.266z"/>
					<path fill="#4A7362" d="M278.174,38.197c6.366-3.331,12.857-6.606,19.464-9.71l3.991-1.872
						c-9.811-2.053-19.668-3.827-29.555-5.354l-0.401,2.598l-2.457,15.891c-9.254,1.497-18.416,3.216-27.494,5.127l-8.731,1.903
						c21.061,2.032,41.939,5.097,62.442,9.373l-2.886-3.435C287.904,47.802,283.1,42.992,278.174,38.197z"/>
					<g>
						<path fill="#356350" d="M259.886,38.382c-8.566-1.184-17.166-2.186-25.787-3.021l-0.813,8.372l-0.296,3.047
							c11.927-2.692,23.996-5.054,36.226-7.03L259.886,38.382z"/>
						<path fill="#356350" d="M32.254,40.867c12.262,2.159,24.421,4.572,36.469,7.213l-0.304-3.046l-0.836-8.37
							c-8.658,0.866-17.305,1.844-25.929,2.949L32.254,40.867z"/>
					</g>
				</g>
			</g>
		</g>
	</g>
	<path fill="none" d="M1.637,42.426c0,0,155.249-30.5,298.249-0.5"/>
	<g>
		<path fill="#FFFFFF" d="M73.483,12.892l1.707,16.641L61.597,15.923l1.499,14.606l-0.635,0.065l-1.707-16.641l13.591,13.587
			l-1.496-14.584L73.483,12.892z"/>
		<path fill="#FFFFFF" d="M82.868,12.062l0.057,0.635l-5.163,0.464l0.803,8.928l4.311-0.388l0.057,0.635l-4.311,0.388l0.502,5.58
			l5.164-0.465l0.058,0.635l-5.887,0.529l-1.476-16.411L82.868,12.062z"/>
		<path fill="#FFFFFF" d="M91.355,28.21c-1.344,0.105-2.517-0.272-3.518-1.134c-1.001-0.862-1.558-2.002-1.669-3.419L85.24,11.847
			l0.723-0.057l0.928,11.789c0.098,1.241,0.58,2.239,1.448,2.994s1.894,1.086,3.076,0.993c1.184-0.094,2.142-0.577,2.874-1.45
			s1.049-1.938,0.95-3.194l-0.928-11.789l0.723-0.057l0.926,11.767c0.113,1.432-0.258,2.655-1.111,3.67
			c-0.854,1.016-1.944,1.575-3.273,1.68L91.355,28.21z"/>
		<path fill="#FFFFFF" d="M101.849,10.958c-0.716,0.048-1.312,0.312-1.786,0.791c-0.475,0.48-0.686,1.107-0.634,1.882l0.007,0.109
			c0.062,0.921,0.63,1.728,1.704,2.419c0.46,0.293,0.975,0.578,1.543,0.855c0.569,0.277,1.141,0.577,1.712,0.898
			c0.572,0.321,1.095,0.669,1.567,1.041s0.871,0.841,1.195,1.406c0.324,0.566,0.51,1.2,0.557,1.901l0.015,0.22
			c0.093,1.389-0.305,2.523-1.193,3.405c-0.888,0.881-2.026,1.368-3.415,1.461c-1.827,0.122-3.296-0.536-4.404-1.974l-0.079-1.185
			c0.436,0.808,1.04,1.446,1.813,1.916s1.708,0.668,2.804,0.595c1.097-0.073,2.023-0.487,2.78-1.243
			c0.757-0.755,1.097-1.718,1.019-2.887l-0.009-0.132c-0.049-0.73-0.283-1.387-0.704-1.968s-0.929-1.047-1.525-1.396
			c-0.596-0.349-1.244-0.713-1.944-1.092c-0.701-0.379-1.349-0.732-1.943-1.06s-1.101-0.756-1.518-1.286s-0.647-1.124-0.691-1.782
			l-0.011-0.153c-0.068-1.023,0.209-1.827,0.83-2.412c0.622-0.585,1.415-0.909,2.38-0.974c1.345-0.09,2.445,0.336,3.301,1.277
			l0.075,1.118c-0.377-0.592-0.866-1.044-1.467-1.355C103.224,11.042,102.565,10.91,101.849,10.958z"/>
		<path fill="#FFFFFF" d="M118.029,17.667c0.681-1.014,1.591-1.723,2.731-2.126c-0.554-0.239-1.019-0.621-1.395-1.147
			c-0.375-0.525-0.577-1.088-0.604-1.688c-0.041-0.922,0.253-1.72,0.883-2.395c0.629-0.674,1.441-1.033,2.438-1.078
			c0.995-0.045,1.847,0.298,2.555,1.029l0.053,1.163c-0.228-0.474-0.59-0.86-1.087-1.16c-0.498-0.301-1.064-0.437-1.701-0.407
			c-0.638,0.028-1.211,0.322-1.721,0.881c-0.511,0.558-0.749,1.196-0.717,1.913c0.032,0.718,0.328,1.331,0.886,1.841
			c0.559,0.511,1.204,0.749,1.936,0.716l0.308-0.014l0.028,0.615l-0.176,0.008c-1.317,0.06-2.441,0.598-3.37,1.615
			c-0.93,1.018-1.365,2.188-1.305,3.513c0.06,1.325,0.595,2.445,1.604,3.36c1.01,0.915,2.181,1.343,3.513,1.282
			c1.332-0.06,2.459-0.588,3.383-1.583c0.923-0.995,1.354-2.166,1.293-3.513l-0.221-4.896l-3.053,0.138l-0.027-0.614l6.763-0.306
			l0.028,0.615L128,15.566l0.457,10.101l-0.659,0.029l-0.127-2.811c-0.282,0.893-0.875,1.66-1.777,2.303
			c-0.902,0.642-1.896,0.987-2.979,1.036c-1.537,0.069-2.875-0.416-4.015-1.458c-1.141-1.041-1.744-2.315-1.813-3.823
			C117.035,19.772,117.349,18.68,118.029,17.667z"/>
		<path fill="#FFFFFF" d="M147.229,18.185l6.174-0.125l0.12,5.955c-1.272,0.831-2.715,1.264-4.326,1.296l-0.242,0.005
			c-1.509,0.03-2.923-0.337-4.242-1.102s-2.37-1.795-3.15-3.091c-0.781-1.296-1.187-2.684-1.216-4.163
			c-0.047-2.329,0.755-4.35,2.405-6.061c1.651-1.711,3.648-2.59,5.992-2.638c1.567-0.031,3.063,0.349,4.485,1.141l0.017,0.813
			c-1.396-0.91-2.893-1.349-4.489-1.316c-2.153,0.043-3.983,0.854-5.49,2.43s-2.239,3.444-2.195,5.605
			c0.044,2.16,0.85,4.002,2.419,5.523s3.431,2.261,5.584,2.218c1.201-0.024,2.44-0.357,3.717-0.998l-0.1-4.966l-5.449,0.109
			L147.229,18.185z"/>
		<path fill="#FFFFFF" d="M161.212,25.244c-1.348,0.006-2.488-0.458-3.422-1.392s-1.404-2.111-1.41-3.532l-0.049-11.843l0.725-0.003
			l0.049,11.821c0.006,1.245,0.412,2.276,1.223,3.093c0.809,0.817,1.807,1.224,2.992,1.218c1.188-0.005,2.178-0.415,2.973-1.231
			s1.189-1.854,1.186-3.114l-0.051-11.821l0.727-0.003l0.049,11.8c0.006,1.436-0.455,2.627-1.381,3.576
			c-0.926,0.948-2.057,1.426-3.389,1.431L161.212,25.244z"/>
		<path fill="#FFFFFF" d="M170.458,8.462l-0.092,16.479l-0.725-0.004l0.092-16.479L170.458,8.462z"/>
		<path fill="#FFFFFF" d="M174.515,24.338l5.098,0.063l-0.008,0.638l-5.822-0.073l0.205-16.479l0.725,0.009L174.515,24.338z"/>
		<path fill="#FFFFFF" d="M182.429,24.461l5.098,0.113l-0.014,0.638l-5.822-0.13l0.365-16.479l0.725,0.016L182.429,24.461z"/>
		<path fill="#FFFFFF" d="M205.039,25.836l-0.768-0.029l-2.879-6.398l-8.805-0.337l-3.313,6.162l-0.682-0.025l8.857-16.55
			L205.039,25.836z M192.898,18.446l8.256,0.315l-3.828-8.59L192.898,18.446z"/>
		<path fill="#FFFFFF" d="M210.955,26.5c-1.346-0.076-2.457-0.609-3.332-1.599s-1.271-2.193-1.191-3.612l0.674-11.826l0.725,0.041
			l-0.674,11.805c-0.07,1.243,0.273,2.298,1.031,3.163c0.758,0.864,1.729,1.331,2.914,1.398s2.199-0.282,3.043-1.048
			c0.844-0.767,1.301-1.779,1.373-3.037l0.672-11.805l0.725,0.041l-0.672,11.783c-0.082,1.434-0.613,2.596-1.596,3.486
			c-0.984,0.891-2.141,1.298-3.471,1.222L210.955,26.5z"/>
		<path fill="#FFFFFF" d="M236.103,27.995l-0.723-0.057l1.236-15.579l-9.018,15.27l-6.453-16.498l-1.236,15.579l-0.656-0.052
			l1.305-16.435l1.051,0.084l6.182,15.749l8.609-14.575l1.008,0.08L236.103,27.995z"/>
		<path fill="#FFFFFF" d="M246.894,12.537l-0.064,0.634l-5.16-0.515l-0.889,8.921l4.307,0.43l-0.063,0.635l-4.309-0.431l-0.557,5.576
			l5.16,0.515l-0.063,0.635l-5.883-0.587l1.637-16.399L246.894,12.537z"/>
	</g>
</g>
</svg>
