<?xml version="1.0" encoding="utf-8"?>
<!-- Generator: Adobe Illustrator 13.0.0, SVG Export Plug-In . SVG Version: 6.00 Build 14948)  -->
<!DOCTYPE svg PUBLIC "-//W3C//DTD SVG 1.1//EN" "http://www.w3.org/Graphics/SVG/1.1/DTD/svg11.dtd">
<svg version="1.1" id="Calque_1" xmlns="http://www.w3.org/2000/svg" xmlns:xlink="http://www.w3.org/1999/xlink" x="0px" y="0px" viewBox="0 0 43.758 73.393" enable-background="new 0 0 43.758 73.393" xml:space="preserve">
<g transform="scale(0.065)">
	<path fill="#F8F2EA" d="M13.809,3.258c4.037-4.305,11.485-4.319,15.639-0.187c3.273,3.562,4.527,8.407,5.494,13.029
		c1.816,8.516,4.412,16.851,6.064,25.395c-3.584,0.064-7.162,0.043-10.744,0.079c4.326,10.548,8.955,20.975,13.496,31.437
		c-3.041,0.505-6.129,0.375-9.199,0.346c-11.521-0.007-23.043,0.015-34.559,0c0.49-1.629,1.039-3.244,1.73-4.802
		c4.031-8.897,7.643-17.976,11.646-26.88c-3.202-0.151-6.41-0.158-9.611-0.064c0.612-7.131,2.595-14.061,3.741-21.112
		C8.674,14.513,9.251,7.808,13.809,3.258L13.809,3.258z"/>
	<path fill="#020102" d="M24.573,18.003c0.482,0.137,0.959,0.274,1.449,0.417l-0.93,0.151c-0.656,0.945-1.039,2.308-2.465,2.373
		C23.469,20.087,24.299,19.208,24.573,18.003L24.573,18.003z"/>
	<path fill="#020102" d="M19.454,20.858c-0.808-0.743-1.319-1.702-1.406-2.805c0.879,0.541,1.76,1.082,2.639,1.629
		C20.376,19.979,19.764,20.563,19.454,20.858L19.454,20.858z"/>
	<path fill="#F8F2EA" d="M21.198,28.963c1.153-0.368,1.558,0.043,1.212,1.226C21.234,30.563,20.831,30.16,21.198,28.963
		L21.198,28.963z"/>
	<path fill="#F8F2EA" d="M16.794,30.326c1.204-0.317,1.571,0.101,1.109,1.247C16.699,31.897,16.332,31.479,16.794,30.326
		L16.794,30.326z"/>
	<path fill="#F8F2EA" d="M25.583,30.326c1.184-0.361,1.572,0.043,1.184,1.218C25.583,31.912,25.186,31.508,25.583,30.326
		L25.583,30.326z"/>
	<path fill="#F8F2EA" d="M19.367,31.977c1.146-0.354,1.536,0.065,1.168,1.262C19.367,33.577,18.978,33.159,19.367,31.977
		L19.367,31.977z"/>
	<path fill="#F8F2EA" d="M22.547,33.462c0.188-0.461,0.57-1.377,0.764-1.839c1.146,0.945,2.625,1.211,4.002,1.659
		c-0.209,0.873-0.455,1.73-0.736,2.574c-0.107-0.663-0.33-1.997-0.445-2.66C24.926,33.087,23.723,33.217,22.547,33.462
		L22.547,33.462z"/>
	<path fill="#F8F2EA" d="M21.603,33.382c0.923,0.404,0.966,0.945,0.137,1.623C20.831,34.58,20.787,34.039,21.603,33.382
		L21.603,33.382z"/>
	<path fill="#F8F2EA" d="M23.016,35.156c1.176-0.411,1.594-0.029,1.254,1.161C23.118,36.721,22.698,36.332,23.016,35.156
		L23.016,35.156z"/>
	<path fill="#EDD5BB" d="M16.149,17.274c0,3.251,2.418,5.886,5.4,5.886c2.982,0,5.402-2.635,5.402-5.886"/>
	<circle fill="#EDD5BB" cx="21.611" cy="9.872" r="6.796"/>
	<path fill="#020102" d="M18.316,2.891c4.311-2.653,10.426,0.873,10.665,5.848c-3.209-0.252-6.172-1.86-7.709-4.737
		c-1.131,3.006-4.008,4.845-7.202,4.759C14.877,6.46,15.879,3.893,18.316,2.891L18.316,2.891z"/>
	<circle cx="19.031" cy="18.306" r="0.334"/>
	<circle cx="20.215" cy="19.489" r="0.334"/>
	<circle cx="21.55" cy="20.824" r="0.334"/>
	<circle cx="22.885" cy="19.489" r="0.334"/>
	<circle cx="24.099" cy="18.276" r="0.333"/>
	<path fill="#EDD5BB" d="M11.417,19.701c0,0,1.942,0.304,1.881,2.609c-0.182,2.792-0.484,3.338-0.788,4.551
		c-0.121,1.396-0.789,2.184-0.426,2.913c0.972,1.093,2.671,1.274,2.853,1.335c0.183,0.061,1.578,1.821,1.578,1.821l-2.428,0.243
		c0,0-4.673-0.546-6.189-2.609C8.141,28.379,10.265,20.611,11.417,19.701z"/>
	<path fill="#EDD5BB" d="M30.86,19.89c0,0-1.941,0.304-1.881,2.61c0.182,2.792,0.486,3.337,0.789,4.551
		c0.121,1.396,0.789,2.185,0.426,2.913c-0.973,1.093-2.67,1.274-2.854,1.335c-0.182,0.061-1.578,1.82-1.578,1.82l2.428,0.243
		c0,0,4.674-0.546,6.189-2.609C34.137,28.568,32.014,20.8,30.86,19.89z"/>
</g>
</svg>
