<?xml version="1.0" encoding="utf-8"?>
<!-- Generator: flash2svg, http://dissentgraphics.com/tools/flash2svg -->
<svg xmlns:xlink="http://www.w3.org/1999/xlink" id="Scene_1" image-rendering="optimizeQuality" baseProfile="basic" version="1.1" x="0px" y="0px" width="800px" height="600px" viewBox="-50 -50 549.8 433.35" xmlns="http://www.w3.org/2000/svg">
  <g id="Scene_1_1_0">
    <g id="element" overflow="visible">
      <g id="root_2_0">
        <g id="element3" overflow="visible" transform="matrix(1 0 0 1 74.1 276.65)">
          <mask id="banner_10_0">
            <g id="g4">
              <g id="mask_mc_1" overflow="visible" viewBox="-50 -50 129.85 115.5" transform="matrix(0.074981689453125 0.011871337890625 -0.3501434326171875 2.2110595703125 233.55 13.1)">
                <animateTransform attributeName="transform" additive="sum" type="rotate" begin="0s" repeatCount="1" dur="1.533s" keyTimes="0;0.794;0.978;1" values="0,0,0;0,0,0;0.003,0,0;0.003,0,0" keySplines="1 0 1 0;0.01 0.01 1 0.2;1 0 1 0" calcMode="spline"/>
                <animateTransform attributeName="transform" additive="sum" type="skewX" begin="0s" repeatCount="1" dur="1.533s" keyTimes="0;0.794;0.978;1" values="0;0;0.003;0.003" keySplines="1 0 1 0;0.01 0.01 1 0.2;1 0 1 0" calcMode="spline"/>
                <animateTransform attributeName="transform" additive="sum" type="scale" begin="0s" repeatCount="1" dur="1.533s" keyTimes="0;0.794;0.978;1" values="1,1;1,1;33.219,1;33.219,1" keySplines="1 0 1 0;0.01 0.01 1 0.2;1 0 1 0" calcMode="spline"/>
                <g id="mask_mc_2">
                  <g id="element37">
                    <path id="path62" fill="#FFF" d="M29.85,0 L0,0 0,15.5 29.85,15.5 29.85,0z " fill-opacity="1"/>
                  </g>
                </g>
              </g>
            </g>
          </mask>
          <mask id="banner_7_0">
            <g id="g3">
              <g id="mask_mc_3" overflow="visible" viewBox="-50 -50 129.85 115.5" transform="matrix(0.153900146484375 -0.0241241455078125 0.34661865234375 2.2117156982421875 -6.449 26.1)">
                <animateTransform attributeName="transform" additive="sum" type="scale" begin="0s" repeatCount="1" dur="1.533s" keyTimes="0;0.174;1" values="1,1;16.189,1;16.189,1" keySplines="0.01 0.01 1 0.2;1 0 1 0" calcMode="spline"/>
                <g id="mask_mc_4">
                  <g id="element38">
                    <path id="path63" fill="#FFF" d="M29.85,0 L0,0 0,15.5 29.85,15.5 29.85,0z " fill-opacity="1"/>
                  </g>
                </g>
              </g>
            </g>
          </mask>
          <mask id="banner_5_0">
            <g id="g2">
              <g id="mask_mc_5" overflow="visible" viewBox="-50 -50 129.85 115.5" transform="matrix(0.151214599609375 0.015777587890625 -0.2596588134765625 2.48968505859375 73.25 11.9)">
                <animateTransform attributeName="transform" additive="sum" type="translate" begin="0s" repeatCount="1" dur="1.533s" keyTimes="0;0.174;0.381;1" values="0.05,0.05;0.05,0.05;-310.399,0.049;-310.399,0.049" keySplines="1 0 1 0;0.01 0.01 1 0.2;1 0 1 0" calcMode="spline"/>
                <animateTransform attributeName="transform" additive="sum" type="rotate" begin="0s" repeatCount="1" dur="1.533s" keyTimes="0;0.174;0.381;1" values="0,29.8,0;0,29.8,0;-0.003,29.75,0;-0.003,29.75,0" keySplines="1 0 1 0;0.01 0.01 1 0.2;1 0 1 0" calcMode="spline"/>
                <animateTransform attributeName="transform" additive="sum" type="skewX" begin="0s" repeatCount="1" dur="1.533s" keyTimes="0;0.174;0.381;1" values="0;0;-0.003;-0.003" keySplines="1 0 1 0;0.01 0.01 1 0.2;1 0 1 0" calcMode="spline"/>
                <animateTransform attributeName="transform" additive="sum" type="scale" begin="0s" repeatCount="1" dur="1.533s" keyTimes="0;0.174;0.381;1" values="1,1;1,1;11.441,1;11.441,1" keySplines="1 0 1 0;0.01 0.01 1 0.2;1 0 1 0" calcMode="spline"/>
                <g id="mask_mc_6">
                  <g id="element39">
                    <path id="path64" fill="#FFF" d="M29.85,0 L0,0 0,15.5 29.85,15.5 29.85,0z " fill-opacity="1"/>
                  </g>
                </g>
              </g>
            </g>
          </mask>
          <mask id="banner_3_0">
            <g id="g1">
              <g id="mask_mc_7" overflow="visible" viewBox="-50 -50 129.85 115.5" transform="matrix(0.179656982421875 -0.0282745361328125 0.3811492919921875 2.4217987060546875 274.5 4.15)">
                <animateTransform attributeName="transform" additive="sum" type="translate" begin="0s" repeatCount="1" dur="1.533s" keyTimes="0;0.587;0.794;1" values="0.05,0.05;0.05,0.05;-408.749,0.1;-408.749,0.1" keySplines="1 0 1 0;0.01 0.01 1 0.2;1 0 1 0" calcMode="spline"/>
                <animateTransform attributeName="transform" additive="sum" type="rotate" begin="0s" repeatCount="1" dur="1.533s" keyTimes="0;0.587;0.794;1" values="0,30.2,-0.299;0,30.2,-0.299;0,30.35,-0.349;0,30.35,-0.349" keySplines="1 0 1 0;0.01 0.01 1 0.2;1 0 1 0" calcMode="spline"/>
                <animateTransform attributeName="transform" additive="sum" type="scale" begin="0s" repeatCount="1" dur="1.533s" keyTimes="0;0.587;0.794;1" values="1,1;1,1;14.451,1;14.451,1" keySplines="1 0 1 0;0.01 0.01 1 0.2;1 0 1 0" calcMode="spline"/>
                <g id="mask_mc_8">
                  <g id="element40">
                    <path id="path65" fill="#FFF" d="M29.85,0 L0,0 0,15.5 29.85,15.5 29.85,0z " fill-opacity="1"/>
                  </g>
                </g>
              </g>
            </g>
          </mask>
          <mask id="banner_0_0">
            <g id="g">
              <g id="mask_mc_9" overflow="visible" transform="matrix(0.1584625244140625 0 0 4.187103271484375 21.25 -17.749)" viewBox="-50 -50 129.85 115.5">
                <animateTransform attributeName="transform" additive="sum" type="scale" begin="0s" repeatCount="1" dur="1.533s" keyTimes="0;0.381;0.587;1" values="1,1;1,1;54.36,1;54.36,1" keySplines="1 0 1 0;0.01 0.01 1 0.2;1 0 1 0" calcMode="spline"/>
                <g id="mask_mc_10">
                  <g id="element41">
                    <path id="path66" fill="#FFF" d="M29.85,0 L0,0 0,15.5 29.85,15.5 29.85,0z " fill-opacity="1"/>
                  </g>
                </g>
              </g>
            </g>
          </mask>
          <g id="masked" mask="url(#banner_0_0)">
            <g id="banner_2_0">
              <g id="element13" transform="matrix(1 0 0 1 -7046.749 -7178.549)">
                <path id="path17" fill="#608576" d="M7074.65,7187.85 L7079.05,7219.45 Q7208.45,7202.15 7316,7218.35 L7320.9,7186.8 C7238.5,7174.5 7155.95,7177 7074.65,7187.85z "/>
              </g>
            </g>
            <g id="banner_1_0">
              <g id="element12">
                <g id="drawingObject" transform="matrix(1 0 0 1 -7046.749 -7178.549)">
                  <path id="path" fill="#FFF" d="M7120.3,7191.5 L7119.65,7191.55 7121.15,7206.15 7107.55,7192.55 7109.25,7209.2 7109.9,7209.15 7108.4,7194.5 7122,7208.15 7120.3,7191.5z "/>
                </g>
                <g id="drawingObject1" transform="matrix(1 0 0 1 -7046.749 -7178.549)">
                  <path id="path1" fill="#FFF" d="M7123.8,7191.2 L7125.25,7207.6 7131.15,7207.05 7131.1,7206.45 7125.9,7206.9 7125.4,7201.3 7129.75,7200.95 7129.65,7200.3 7125.35,7200.7 7124.55,7191.75 7129.7,7191.3 7129.65,7190.65 7123.8,7191.2z "/>
                </g>
                <g id="drawingObject2" transform="matrix(1 0 0 1 -7046.749 -7178.549)">
                  <path id="path2" fill="#FFF" d="M7142.75,7201.45 L7141.85,7189.7 7141.1,7189.75 7142.05,7201.5 C7142.15,7202.8 7141.8,7203.85 7141.1,7204.7 7140.35,7205.6 7139.4,7206.05 7138.2,7206.15 7137.05,7206.25 7136,7205.95 7135.15,7205.15 7134.25,7204.4 7133.8,7203.4 7133.7,7202.2 L7132.75,7190.4 7132.05,7190.45 7132.95,7202.25 C7133.1,7203.65 7133.65,7204.8 7134.65,7205.7 Q7136.1,7206.95 7138.15,7206.8 L7138.35,7206.8 C7139.7,7206.7 7140.8,7206.15 7141.65,7205.1 7142.5,7204.1 7142.85,7202.85 7142.75,7201.45z "/>
                </g>
                <g id="drawingObject3" transform="matrix(1 0 0 1 -7046.749 -7178.549)">
                  <path id="path3" fill="#FFF" d="M7152.1,7191.3 L7152,7190.2 C7151.15,7189.25 7150.05,7188.8 7148.7,7188.9 7147.75,7189 7146.95,7189.3 7146.35,7189.9 7145.7,7190.45 7145.45,7191.3 7145.5,7192.3 L7145.5,7192.45 C7145.55,7193.1 7145.8,7193.7 7146.2,7194.25 7146.6,7194.75 7147.15,7195.2 7147.75,7195.5 L7151.6,7197.65 C7152.2,7198 7152.7,7198.5 7153.15,7199.05 7153.55,7199.65 7153.8,7200.3 7153.85,7201.05 L7153.85,7201.15 C7153.95,7202.35 7153.6,7203.3 7152.85,7204.05 7152.1,7204.8 7151.15,7205.25 7150.05,7205.3 7148.95,7205.35 7148,7205.15 7147.25,7204.7 7146.5,7204.25 7145.85,7203.6 7145.45,7202.8 L7145.5,7203.95 C7146.6,7205.4 7148.1,7206.05 7149.9,7205.95 7151.3,7205.85 7152.45,7205.35 7153.35,7204.5 7154.2,7203.6 7154.6,7202.45 7154.55,7201.1 L7154.5,7200.85 C7154.45,7200.15 7154.3,7199.5 7153.95,7198.95 7153.65,7198.4 7153.25,7197.9 7152.75,7197.55 L7149.5,7195.6 C7148.9,7195.35 7148.4,7195.05 7147.95,7194.75 7146.85,7194.05 7146.3,7193.25 7146.25,7192.35 L7146.25,7192.25 C7146.2,7191.45 7146.4,7190.85 7146.85,7190.35 Q7147.55,7189.65 7148.65,7189.55 C7149.35,7189.5 7150,7189.65 7150.6,7189.95 7151.25,7190.25 7151.7,7190.7 7152.1,7191.3z "/>
                </g>
                <g id="drawingObject4" transform="matrix(1 0 0 1 -7046.749 -7178.549)">
                  <path id="path4" fill="#FFF" d="M7164.85,7196.25 C7164.15,7197.3 7163.85,7198.35 7163.9,7199.55 7163.95,7201.05 7164.55,7202.3 7165.7,7203.35 7166.85,7204.4 7168.2,7204.9 7169.7,7204.8 7170.8,7204.75 7171.8,7204.45 7172.7,7203.8 7173.6,7203.15 7174.2,7202.4 7174.45,7201.5 L7174.6,7204.3 7175.25,7204.25 7174.8,7194.15 7177.85,7194.05 7177.8,7193.4 7171.05,7193.7 7171.1,7194.35 7174.15,7194.2 7174.35,7199.1 C7174.4,7200.45 7174,7201.6 7173.05,7202.6 7172.15,7203.6 7171,7204.15 7169.7,7204.2 7168.35,7204.25 7167.2,7203.8 7166.15,7202.9 7165.15,7202 7164.65,7200.85 7164.55,7199.55 7164.5,7198.2 7164.95,7197.05 7165.85,7196.05 7166.8,7195 7167.95,7194.5 7169.25,7194.4 L7169.4,7194.4 7169.4,7193.8 7169.1,7193.8 C7168.35,7193.85 7167.7,7193.6 7167.15,7193.1 7166.6,7192.6 7166.3,7191.95 7166.25,7191.25 7166.25,7190.55 7166.45,7189.9 7167,7189.35 7167.5,7188.8 7168.05,7188.5 7168.7,7188.45 7169.35,7188.45 7169.9,7188.55 7170.4,7188.85 7170.9,7189.15 7171.25,7189.55 7171.5,7190 L7171.45,7188.85 C7170.75,7188.15 7169.9,7187.8 7168.9,7187.85 7167.9,7187.9 7167.05,7188.25 7166.45,7188.9 7165.8,7189.6 7165.5,7190.4 7165.55,7191.3 7165.6,7191.9 7165.8,7192.45 7166.15,7193 7166.55,7193.5 7167,7193.9 7167.55,7194.15 Q7165.85,7194.75 7164.85,7196.25z "/>
                </g>
                <g id="drawingObject5" transform="matrix(1 0 0 1 -7046.749 -7178.549)">
                  <path id="path5" fill="#FFF" d="M7194.05,7196.8 L7194.05,7197.4 7199.5,7197.3 7199.6,7202.3 C7198.3,7202.9 7197.05,7203.25 7195.85,7203.25 7193.7,7203.3 7191.85,7202.6 7190.3,7201.05 7188.7,7199.55 7187.9,7197.7 7187.85,7195.55 7187.85,7193.35 7188.55,7191.5 7190.05,7189.95 7191.55,7188.35 7193.4,7187.55 7195.55,7187.5 7197.15,7187.45 7198.65,7187.9 7200.05,7188.8 L7200.05,7188 C7198.6,7187.2 7197.1,7186.85 7195.55,7186.85 7193.2,7186.9 7191.2,7187.8 7189.55,7189.5 7187.9,7191.2 7187.1,7193.25 7187.15,7195.55 7187.15,7197.05 7187.6,7198.45 7188.35,7199.7 7189.15,7201 7190.2,7202.05 7191.5,7202.8 7192.85,7203.6 7194.25,7203.95 7195.75,7203.9 L7196,7203.9 C7197.6,7203.9 7199.05,7203.45 7200.3,7202.6 L7200.2,7196.65 7194.05,7196.8z "/>
                </g>
                <g id="drawingObject6" transform="matrix(1 0 0 1 -7046.749 -7178.549)">
                  <path id="path6" fill="#FFF" d="M7211.6,7202.4 C7212.55,7201.45 7213,7200.25 7213,7198.85 L7212.95,7187.05 7212.25,7187.05 7212.3,7198.85 C7212.3,7200.1 7211.9,7201.15 7211.1,7201.95 7210.3,7202.8 7209.3,7203.2 7208.1,7203.2 7206.95,7203.2 7205.95,7202.8 7205.15,7202 7204.3,7201.15 7203.9,7200.15 7203.9,7198.9 L7203.85,7187.05 7203.15,7187.1 7203.2,7198.9 C7203.2,7200.35 7203.65,7201.5 7204.6,7202.45 Q7205.95,7203.85 7208,7203.85 L7208.25,7203.85 C7209.55,7203.85 7210.7,7203.35 7211.6,7202.4z "/>
                </g>
                <g id="drawingObject7" transform="matrix(1 0 0 1 -7046.749 -7178.549)">
                  <path id="path7" fill="#FFF" d="M7217.25,7187.05 L7216.55,7187.05 7216.45,7203.55 7217.15,7203.55 7217.25,7187.05z "/>
                </g>
                <g id="drawingObject8" transform="matrix(1 0 0 1 -7046.749 -7178.549)">
                  <path id="path8" fill="#FFF" d="M7221.3,7202.95 L7221.5,7187.1 7220.8,7187.1 7220.6,7203.55 7226.4,7203.65 7226.4,7203 7221.3,7202.95z "/>
                </g>
                <g id="drawingObject9" transform="matrix(1 0 0 1 -7046.749 -7178.549)">
                  <path id="path9" fill="#FFF" d="M7229.25,7203.05 L7229.6,7187.2 7228.85,7187.2 7228.5,7203.7 7234.3,7203.8 7234.35,7203.15 7229.25,7203.05z "/>
                </g>
                <g id="drawingObject10" transform="matrix(1 0 0 1 -7046.749 -7178.549)">
                  <path id="path10" fill="#FFF" d="M7244.25,7187.25 L7235.4,7203.8 7236.05,7203.85 7239.4,7197.65 7248.2,7198 7251.05,7204.4 7251.85,7204.45 7244.25,7187.25z M7244.15,7188.75 L7247.95,7197.35 7239.7,7197.05 7244.15,7188.75z"/>
                </g>
                <g id="drawingObject11" transform="matrix(1 0 0 1 -7046.749 -7178.549)">
                  <path id="path14" fill="#FFF" d="M7263.05,7200.4 L7263.7,7188.6 7263,7188.6 7262.3,7200.4 C7262.25,7201.65 7261.8,7202.65 7260.95,7203.4 7260.1,7204.2 7259.1,7204.55 7257.9,7204.45 7256.7,7204.4 7255.75,7203.95 7255,7203.05 7254.25,7202.2 7253.9,7201.15 7253.95,7199.9 L7254.65,7188.1 7253.9,7188.05 7253.25,7199.9 C7253.15,7201.3 7253.55,7202.5 7254.4,7203.5 Q7255.7,7204.95 7257.75,7205.1 L7258,7205.1 C7259.3,7205.2 7260.45,7204.8 7261.45,7203.9 7262.45,7203 7262.95,7201.85 7263.05,7200.4z "/>
                </g>
                <g id="drawingObject12" transform="matrix(1 0 0 1 -7046.749 -7178.549)">
                  <path id="path15" fill="#FFF" d="M7284.2,7190.15 L7283.2,7190.1 7274.6,7204.65 7268.4,7188.9 7267.35,7188.8 7266.05,7205.25 7266.7,7205.3 7267.95,7189.75 7274.4,7206.25 7283.4,7190.95 7282.2,7206.55 7282.9,7206.6 7284.2,7190.15z "/>
                </g>
                <g id="drawingObject13" transform="matrix(1 0 0 1 -7046.749 -7178.549)">
                  <path id="path16" fill="#FFF" d="M7292.05,7207.55 L7292.1,7206.9 7286.95,7206.4 7287.5,7200.8 7291.8,7201.25 7291.9,7200.6 7287.6,7200.2 7288.45,7191.25 7293.65,7191.75 7293.7,7191.15 7287.8,7190.55 7286.15,7206.95 7292.05,7207.55z "/>
                </g>
              </g>
            </g>
          </g>
          <g id="masked1" mask="url(#banner_3_0)">
            <g id="banner_4_0">
              <g id="element15" transform="matrix(1 0 0 1 233 8.25)">
                <path id="path18" transform="matrix(1 0 0 1 -232.999 -8.249)" fill="#356350" d="M269.45,39.85 L273.85,8.25 236.2,13 233,47.1 269.45,39.85z "/>
              </g>
            </g>
          </g>
          <g id="masked2" mask="url(#banner_5_0)">
            <g id="banner_6_0">
              <g id="element17" transform="matrix(1 0 0 1 27.85 9.25)">
                <path id="path19" transform="matrix(1 0 0 1 -27.849 -9.249)" fill="#356350" d="M68.7,48.1 L65.5,14 27.85,9.25 32.25,40.85 68.7,48.1z "/>
              </g>
            </g>
          </g>
          <g id="masked3" mask="url(#banner_7_0)">
            <g id="banner_9_0">
              <g id="element20">
                <path id="path21" fill="#4A7362" d="M68.7,48.1 L59.9,46.2 C50.75,44.3 41.55,42.5 32.25,40.85 L29.7,22.35 C19.8,23.75 10.05,25.2 0,27.1 1.4,27.7 2.7,28.35 4,29 10.55,32.3 16.95,35.7 23.3,39.15 18.25,43.85 13.3,48.6 8.55,53.35 7.6,54.45 6.55,55.6 5.8,56.7 Q33.45,51.6 68.7,48.1z "/>
              </g>
            </g>
            <g id="banner_8_0">
              <g id="element19" transform="matrix(1 0 0 1 29.5 14.1)">
                <path id="path20" transform="matrix(1 0 0 1 -29.499 -14.099)" fill="#4A7362" d="M68.7,48.1 L65.5,14.1 C53.85,17.15 41.85,19.9 29.5,22.35 L29.5,48.1 68.7,48.1z "/>
              </g>
            </g>
          </g>
          <g id="masked4" mask="url(#banner_10_0)">
            <g id="banner_11_0">
              <g id="element22" transform="matrix(1 0 0 1 -7046.749 -7178.549)">
                <path id="path22" fill="#4A7362" d="M7318.85,7199.85 L7316,7218.35 C7306.75,7219.85 7297.6,7221.55 7288.5,7223.5 L7279.8,7225.4 C7300.85,7227.4 7321.75,7230.5 7342.25,7234.75 L7339.35,7231.3 C7334.7,7226.4 7329.9,7221.6 7324.95,7216.8 Q7335,7211.55 7344.45,7207.1 L7348.45,7205.2 C7338.6,7203.15 7328.75,7201.4 7318.85,7199.85z "/>
              </g>
            </g>
          </g>
        </g>
      </g>
      <g id="root_1_0">
        <g id="element2" overflow="visible" transform="matrix(1 0 0 1 62.65 0)">
          <g id="groombride_0">
            <g id="element9" overflow="visible" transform="matrix(1 0 0 1 139.5 0)">
              <g id="groom_2_0">
                <g id="doted-circle_1" overflow="visible" viewBox="-50 -50 285 285">
                  <g id="doted-circle_2">
                    <g id="element44">
                      <path id="path69" transform="matrix(1 0 0 1 0.45 0.45)" fill="none" stroke="#03874B" stroke-linecap="round" stroke-linejoin="round" d="M157.9,27.1 Q130.8,0 92.5,0 C66.95,0 45.15,9.05 27.1,27.1 9.05,45.15 0,66.95 0,92.5 0,118.05 9.05,139.85 27.1,157.9 45.15,175.95 66.95,185 92.5,185 118.05,185 139.85,175.95 157.9,157.9 175.95,139.85 185,118.05 185,92.5 185,66.95 175.95,45.15 157.9,27.1z "/>
                    </g>
                  </g>
                </g>
              </g>
              <mask id="groom_0_0">
                <g id="g5">
                  <g id="mask_mc_11" overflow="visible" viewBox="-50 -50 129.85 115.5" transform="matrix(1.457275390625 0 0 1 69.15 26.85)">
                    <animateTransform attributeName="transform" additive="sum" type="scale" begin="0s" repeatCount="1" dur="1.533s" keyTimes="0;0.75;1" values="1,1;1,8.603;1,8.603" keySplines="0 0.8 0.99 0.99;1 0 1 0" calcMode="spline"/>
                    <g id="mask_mc_12">
                      <g id="element42">
                        <path id="path67" fill="#FFF" d="M29.85,0 L0,0 0,15.5 29.85,15.5 29.85,0z " fill-opacity="1"/>
                      </g>
                    </g>
                  </g>
                </g>
              </mask>
              <g id="masked5" mask="url(#groom_0_0)">
                <g id="groom_1_0">
                  <g id="element30">
                    <g id="drawingObject20" transform="matrix(1 0 0 1 -7172.699 -6971.699)">
                      <path id="path29" fill="#020102" d="M7268.85,7027.8 Q7265.05,7025.6 7261.65,7027.7 C7259.1,7028.75 7258.05,7031.45 7257.2,7033.9 7260.55,7033.95 7263.6,7032.05 7264.75,7028.9 7266.4,7031.9 7269.5,7033.6 7272.85,7033.85 Q7272.65,7029.9 7268.85,7027.8z "/>
                    </g>
                    <g id="drawingObject21" transform="matrix(1 0 0 1 -7172.699 -6971.699)">
                      <path id="path30" fill="#EDD5BB" d="M7257.2,7033.9 C7257.65,7035.95 7257.95,7038.25 7259.65,7039.7 7262.6,7043.1 7268.65,7042.85 7271.3,7039.25 7272.55,7037.7 7272.6,7035.7 7272.85,7033.85 7269.5,7033.6 7266.4,7031.9 7264.75,7028.9 Q7263.9,7031.25 7261.8,7032.6 7259.75,7033.95 7257.2,7033.9z "/>
                    </g>
                    <g id="drawingObject22" transform="matrix(1 0 0 1 -7172.699 -6971.699)">
                      <path id="path31" fill="#020102" d="M7270.6,7043.8 L7270.4,7044.35 C7268.45,7049.95 7266.95,7055.7 7264.8,7061.25 7263.15,7055.4 7261.4,7049.65 7259.6,7043.9 Q7256.75,7044.65 7254.85,7046.55 7252.7,7048.65 7252.7,7051.4 C7252.6,7057.7 7252.6,7064 7252.7,7070.35 7252.6,7073.15 7254.9,7074.9 7256.7,7076.65 7257.4,7084.7 7255.95,7092.9 7257.5,7100.85 7259.8,7101.4 7262.1,7101.8 7264.4,7101.9 7265.1,7094.4 7264.6,7086.9 7264.75,7079.45 7264.75,7078.3 7264.95,7077.2 7265.35,7076.15 7266.1,7084.65 7265.5,7093.25 7265.7,7101.8 7268.25,7101.6 7271.25,7102.1 7273.15,7100.05 7273.9,7092.3 7273.25,7084.4 7273.5,7076.6 7275.85,7075 7278.05,7072.65 7277.9,7069.6 7277.95,7063.5 7278.1,7057.35 7277.85,7051.25 7277.55,7047.35 7274.2,7044.65 7270.6,7043.8z "/>
                    </g>
                    <g id="drawingObject23" transform="matrix(1 0 0 1 -7172.699 -6971.699)">
                      <path id="path32" fill="#F8F2EA" d="M7259.6,7043.9 C7261.4,7049.65 7263.15,7055.4 7264.8,7061.25 7266.95,7055.7 7268.45,7049.95 7270.4,7044.35 7269.45,7043.9 7268.45,7043.55 7267.4,7043.35 L7267.55,7046.5 C7265.85,7045.85 7264.05,7045.8 7262.35,7046.5 L7262.45,7043.65 7259.6,7043.9z "/>
                    </g>
                    <g id="drawingObject24" transform="matrix(1 0 0 1 -7172.699 -6971.699)">
                      <path id="path33" fill="#F8F2EA" d="M7269.05,7053.85 L7273.05,7053.9 7271.4,7050.85 7269.05,7053.85z "/>
                    </g>
                    <g id="drawingObject25" transform="matrix(1 0 0 1 -7172.699 -6971.699)">
                      <path id="path34" fill="#F8F2EA" d="M7262.4,7043.65 L7262.2,7047 7267.9,7046.65 C7267.9,7046.65 7271.3,7043.65 7267.45,7043.4 Q7265.1,7043.2 7263.5,7043.4 L7262.4,7043.65z "/>
                    </g>
                    <g id="drawingObject26" transform="matrix(1 0 0 1 -7172.699 -6971.699)">
                      <path id="path35" fill="#020102" d="M7265.5,7049.2 C7265.5,7048.75 7265.2,7048.4 7264.75,7048.4 7264.35,7048.4 7264,7048.75 7264,7049.2 7264,7049.6 7264.35,7049.95 7264.75,7049.95 Q7265.5,7049.95 7265.5,7049.2z "/>
                    </g>
                    <g id="drawingObject27" transform="matrix(1 0 0 1 -7172.699 -6971.699)">
                      <path id="path36" fill="#020102" d="M7265.5,7052.75 C7265.5,7052.35 7265.2,7052 7264.75,7052 7264.35,7052 7264,7052.35 7264,7052.75 7264,7053.2 7264.35,7053.55 7264.75,7053.55 Q7265.5,7053.55 7265.5,7052.75z "/>
                    </g>
                    <g id="drawingObject28" transform="matrix(1 0 0 1 -7172.699 -6971.699)">
                      <path id="path37" fill="#020102" d="M7265.5,7056.55 C7265.5,7056.15 7265.2,7055.8 7264.75,7055.8 7264.35,7055.8 7264,7056.15 7264,7056.55 7264,7057 7264.35,7057.35 7264.75,7057.35 Q7265.5,7057.35 7265.5,7056.55z "/>
                    </g>
                    <g id="drawingObject29" transform="matrix(1 0 0 1 -7172.699 -6971.699)">
                      <path id="path38" fill="#020102" d="M7262.95,7046.45 L7265,7044.8 7262.95,7042.8 7262.95,7046.45z "/>
                    </g>
                    <g id="drawingObject30" transform="matrix(1 0 0 1 -7172.699 -6971.699)">
                      <path id="path39" fill="#020102" d="M7266.9,7042.9 L7264.9,7044.9 7266.9,7046.55 7266.9,7042.9z "/>
                    </g>
                  </g>
                </g>
              </g>
            </g>
            <g id="element10" overflow="visible" transform="matrix(1 0 0 1 0 0)">
              <g id="bride_2_0">
                <g id="doted-circle_3" overflow="visible" viewBox="-50 -50 285 285">
                  <g id="doted-circle_4">
                    <g id="element45">
                      <path id="path70" transform="matrix(1 0 0 1 0.45 0.45)" fill="none" stroke="#03874B" stroke-linecap="round" stroke-linejoin="round" d="M157.9,27.1 Q130.8,0 92.5,0 C66.95,0 45.15,9.05 27.1,27.1 9.05,45.15 0,66.95 0,92.5 0,118.05 9.05,139.85 27.1,157.9 45.15,175.95 66.95,185 92.5,185 118.05,185 139.85,175.95 157.9,157.9 175.95,139.85 185,118.05 185,92.5 185,66.95 175.95,45.15 157.9,27.1z "/>
                    </g>
                  </g>
                </g>
              </g>
              <mask id="bride_0_4">
                <g id="g6">
                  <g id="mask_mc_13" overflow="visible" viewBox="-50 -50 129.85 115.5" transform="matrix(1.457275390625 0 0 1 69.15 26.85)">
                    <animateTransform attributeName="transform" additive="sum" type="scale" begin="0s" repeatCount="1" dur="1.533s" keyTimes="0;0.043;0.902;1" values="1,1;1,1;1,8.603;1,8.603" keySplines="0 0 1 1;0 0.8 0.99 0.99;1 0 1 0" calcMode="spline"/>
                    <g id="mask_mc_14">
                      <g id="element43">
                        <path id="path68" fill="#FFF" d="M29.85,0 L0,0 0,15.5 29.85,15.5 29.85,0z " fill-opacity="1"/>
                      </g>
                    </g>
                  </g>
                </g>
                <animate attributeName="display" begin="0s" repeatCount="1" dur="1.533s" keyTimes="0;0.043;1" values="none;inline;none"/>
              </mask>
              <g id="masked6" mask="url(#bride_0_4)">
                <g id="bride_1_4">
                  <g id="element33">
                    <g id="drawingObject31" transform="matrix(1 0 0 1 -7062.849 -6971.749)">
                      <path id="path40" fill="#F8F2EA" d="M7174.55,7069.1 C7172.9,7060.6 7170.3,7052.25 7168.5,7043.75 7167.5,7039.1 7166.25,7034.25 7163,7030.7 Q7159.9,7027.6 7155.15,7027.65 7150.4,7027.7 7147.35,7030.9 C7142.8,7035.45 7142.2,7042.15 7141.05,7048.15 7139.9,7055.2 7137.95,7062.1 7137.3,7069.25 7140.5,7069.15 7143.7,7069.15 7146.9,7069.3 7142.9,7078.2 7139.3,7087.3 7135.3,7096.2 7134.6,7097.75 7134.05,7099.35 7133.55,7101 L7168.1,7101 C7171.2,7101 7174.25,7101.15 7177.3,7100.65 7172.75,7090.2 7168.15,7079.75 7163.8,7069.2 7167.4,7069.15 7170.95,7069.2 7174.55,7069.1z "/>
                    </g>
                    <g id="drawingObject32" transform="matrix(1 0 0 1 -7062.849 -6971.749)">
                      <path id="path41" fill="#020102" d="M7158.1,7045.65 C7157.85,7046.85 7157,7047.7 7156.2,7048.55 7157.6,7048.5 7158,7047.15 7158.65,7046.2 L7159.55,7046.05 7158.1,7045.65z "/>
                    </g>
                    <g id="drawingObject33" transform="matrix(1 0 0 1 -7062.849 -6971.749)">
                      <path id="path42" fill="#020102" d="M7153,7048.5 L7154.25,7047.3 7151.6,7045.7 Q7151.75,7047.35 7153,7048.5z "/>
                    </g>
                    <g id="drawingObject34" transform="matrix(1 0 0 1 -7062.849 -6971.749)">
                      <path id="path43" fill="#F8F2EA" d="M7155.95,7057.8 Q7156.5,7056 7154.75,7056.6 C7154.4,7057.8 7154.8,7058.2 7155.95,7057.8 "/>
                    </g>
                    <g id="drawingObject35" transform="matrix(1 0 0 1 -7062.849 -6971.749)">
                      <path id="path44" fill="#F8F2EA" d="M7151.45,7059.2 Q7152.1,7057.5 7150.35,7057.95 C7149.9,7059.1 7150.25,7059.55 7151.45,7059.2 "/>
                    </g>
                    <g id="drawingObject36" transform="matrix(1 0 0 1 -7062.849 -6971.749)">
                      <path id="path45" fill="#F8F2EA" d="M7160.3,7059.15 Q7160.9,7057.4 7159.15,7057.95 C7158.75,7059.15 7159.15,7059.55 7160.3,7059.15 "/>
                    </g>
                    <g id="drawingObject37" transform="matrix(1 0 0 1 -7062.849 -6971.749)">
                      <path id="path46" fill="#F8F2EA" d="M7154.1,7060.85 Q7154.6,7059.1 7152.9,7059.6 C7152.55,7060.8 7152.9,7061.2 7154.1,7060.85 "/>
                    </g>
                    <g id="drawingObject38" transform="matrix(1 0 0 1 -7062.849 -6971.749)">
                      <path id="path47" fill="#F8F2EA" d="M7156.1,7061.1 C7157.25,7060.85 7158.5,7060.7 7159.7,7060.8 L7160.15,7063.5 7160.85,7060.9 C7159.5,7060.45 7158,7060.2 7156.85,7059.25 L7156.1,7061.1z "/>
                    </g>
                    <g id="drawingObject39" transform="matrix(1 0 0 1 -7062.849 -6971.749)">
                      <path id="path48" fill="#F8F2EA" d="M7155.3,7062.65 Q7156.5,7061.6 7155.15,7061 C7154.35,7061.65 7154.4,7062.2 7155.3,7062.65 "/>
                    </g>
                    <g id="drawingObject40" transform="matrix(1 0 0 1 -7062.849 -6971.749)">
                      <path id="path49" fill="#F8F2EA" d="M7157.8,7063.95 Q7158.35,7062.15 7156.55,7062.8 C7156.25,7063.95 7156.65,7064.35 7157.8,7063.95 "/>
                    </g>
                    <g id="drawingObject41" transform="matrix(1 0 0 1 -7062.849 -6971.749)">
                      <path id="path50" fill="#EDD5BB" d="M7160.5,7044.9 L7149.7,7044.9 Q7149.7,7047.35 7151.3,7049.05 7152.85,7050.8 7155.1,7050.8 C7158.1,7050.8 7160.5,7048.15 7160.5,7044.9z "/>
                    </g>
                    <g id="drawingObject42" transform="matrix(1 0 0 1 -7062.849 -6971.749)">
                      <path id="path51" fill="#EDD5BB" d="M7161.95,7037.5 C7161.95,7033.75 7158.9,7030.7 7155.15,7030.7 7151.4,7030.7 7148.35,7033.75 7148.35,7037.5 7148.35,7041.25 7151.4,7044.3 7155.15,7044.3 Q7157.95,7044.3 7159.95,7042.3 7161.95,7040.3 7161.95,7037.5z "/>
                    </g>
                    <g id="drawingObject43" transform="matrix(1 0 0 1 -7062.849 -6971.749)">
                      <path id="path52" fill="#020102" d="M7151.85,7030.5 C7149.45,7031.5 7148.45,7034.1 7147.6,7036.4 7150.8,7036.45 7153.7,7034.65 7154.8,7031.65 7156.35,7034.5 7159.3,7036.1 7162.55,7036.35 Q7162.35,7032.6 7158.75,7030.6 7155.1,7028.55 7151.85,7030.5z "/>
                    </g>
                    <g id="drawingObject44" transform="matrix(1 0 0 1 -7062.849 -6971.749)">
                      <path id="path53" fill="#000" d="M7152.9,7045.95 C7152.9,7045.75 7152.75,7045.6 7152.6,7045.6 7152.4,7045.6 7152.25,7045.75 7152.25,7045.95 7152.25,7046.1 7152.4,7046.25 7152.6,7046.25 Q7152.9,7046.25 7152.9,7045.95z "/>
                    </g>
                    <g id="drawingObject45" transform="matrix(1 0 0 1 -7062.849 -6971.749)">
                      <path id="path54" fill="#000" d="M7154.1,7047.1 C7154.1,7046.95 7153.95,7046.8 7153.75,7046.8 7153.6,7046.8 7153.45,7046.95 7153.45,7047.1 7153.45,7047.3 7153.6,7047.45 7153.75,7047.45 Q7154.1,7047.45 7154.1,7047.1z "/>
                    </g>
                    <g id="drawingObject46" transform="matrix(1 0 0 1 -7062.849 -6971.749)">
                      <path id="path55" fill="#000" d="M7155.45,7048.45 C7155.45,7048.25 7155.3,7048.1 7155.1,7048.1 7154.9,7048.1 7154.75,7048.25 7154.75,7048.45 7154.75,7048.65 7154.9,7048.8 7155.1,7048.8 Q7155.45,7048.8 7155.45,7048.45z "/>
                    </g>
                    <g id="drawingObject47" transform="matrix(1 0 0 1 -7062.849 -6971.749)">
                      <path id="path56" fill="#000" d="M7156.75,7047.1 C7156.75,7046.95 7156.6,7046.8 7156.45,7046.8 7156.25,7046.8 7156.1,7046.95 7156.1,7047.1 7156.1,7047.3 7156.25,7047.45 7156.45,7047.45 Q7156.75,7047.45 7156.75,7047.1z "/>
                    </g>
                    <g id="drawingObject48" transform="matrix(1 0 0 1 -7062.849 -6971.749)">
                      <path id="path57" fill="#000" d="M7158,7045.9 C7158,7045.7 7157.85,7045.55 7157.65,7045.55 7157.45,7045.55 7157.3,7045.7 7157.3,7045.9 7157.3,7046.1 7157.45,7046.25 7157.65,7046.25 Q7158,7046.25 7158,7045.9z "/>
                    </g>
                    <g id="drawingObject49" transform="matrix(1 0 0 1 -7062.849 -6971.749)">
                      <path id="path58" fill="#EDD5BB" d="M7144.95,7047.35 C7143.8,7048.25 7141.7,7056 7141.45,7058.2 7142.95,7060.25 7147.65,7060.8 7147.65,7060.8 L7150.05,7060.55 7148.5,7058.75 C7148.3,7058.7 7146.6,7058.5 7145.65,7057.4 7145.25,7056.65 7145.95,7055.9 7146.05,7054.5 7146.35,7053.3 7146.65,7052.75 7146.85,7049.95 Q7146.9,7048.5 7145.9,7047.8 L7144.95,7047.35z "/>
                    </g>
                    <g id="drawingObject50" transform="matrix(1 0 0 1 -7062.849 -6971.749)">
                      <path id="path59" fill="#EDD5BB" d="M7167.95,7058.4 C7167.7,7056.2 7165.55,7048.45 7164.4,7047.5 Q7163.9,7047.6 7163.45,7047.95 7162.5,7048.7 7162.55,7050.15 C7162.7,7052.9 7163,7053.45 7163.3,7054.7 7163.45,7056.05 7164.1,7056.85 7163.75,7057.6 7162.75,7058.7 7161.05,7058.85 7160.9,7058.95 L7159.3,7060.75 7161.75,7061 L7164.25,7060.45 L7161.75,7061 C7161.75,7061 7166.4,7060.45 7167.95,7058.4z "/>
                    </g>
                  </g>
                  <animate attributeName="display" begin="0s" repeatCount="1" dur="1.533s" keyTimes="0;0.043;1" values="none;inline;none"/>
                </g>
              </g>
            </g>
          </g>
        </g>
      </g>
      <g id="root_0_0">
        <g id="element1" overflow="visible" transform="matrix(1 0 0 1 -18.699 208.75)">
          <g id="dotted-line_4_62">
            <g id="element8" overflow="visible" transform="matrix(0.2010650634765625 0 0 0.2010650634765625 468.35 19.3)">
              <g id="leaf5_0">
                <g id="element28">
                  <path id="path28" fill="#013B23" d="M4.95,1.8 Q2.3,2 1.05,1.05 L0,0 0.95,1.05 C3.75,4.55 -0.5,4.45 4.15,12.5 9.25,21.3 18.55,18.15 18.55,18.15 18.55,18.15 21,9.15 12.25,4.1 Q7.85,1.55 4.95,1.8z "/>
                </g>
              </g>
              <animateTransform attributeName="transform" additive="sum" type="scale" begin="0s" repeatCount="1" dur="1.533s" keyTimes="0;0.674;0.75;0.783;1" values="1,1;1,1;6,6;4.974,4.974;4.974,4.974" keySplines="0 0 1 1;0.01 0.01 1 0.2;0 0.8 0.99 0.99;1 0 1 0" calcMode="spline"/>
            </g>
            <animate attributeName="display" begin="0s" repeatCount="1" dur="1.533s" keyTimes="0;0.674;1" values="none;inline;none"/>
          </g>
          <g id="dotted-line_3_42">
            <g id="element7" overflow="visible" transform="matrix(0.1192474365234375 0 0 0.1192474365234375 468.5 16.95)">
              <g id="leaf3_0">
                <g id="element27">
                  <path id="path27" fill="#03874B" d="M18.1,0.35 Q15.85,-0.25 13,0.2 7.25,1.15 4.05,6.65 C-0.5,14.5 3.45,14.6 1.05,17.85 L0,18.9 0.75,18.2 C0.65,18.35 0.6,18.45 0.55,18.5 L0.525,18.475 L1.05,17.95 C4.55,15.1 4.4,19.4 12.5,14.75 21.25,9.65 18.1,0.35 18.1,0.35z "/>
                </g>
              </g>
              <animateTransform attributeName="transform" additive="sum" type="translate" begin="0s" repeatCount="1" dur="1.533s" keyTimes="0;0.457;0.609;0.641;1" values="0.05,0.05;0.05,0.05;-2.049,-167.699;-1.599,-142.099;-1.599,-142.099" keySplines="0 0 1 1;0.01 0.01 1 0.2;0 0.8 0.99 0.99;1 0 1 0" calcMode="spline"/>
              <animateTransform attributeName="transform" additive="sum" type="rotate" begin="0s" repeatCount="1" dur="1.533s" keyTimes="0;0.457;0.609;1" values="0,0,19.3;0,0,19.3;0,0.2,19.25;0,0.2,19.25" keySplines="0 0 1 1;0.01 0.01 1 0.2;1 0 1 0" calcMode="spline"/>
              <animateTransform attributeName="transform" additive="sum" type="scale" begin="0s" repeatCount="1" dur="1.533s" keyTimes="0;0.457;0.609;0.641;1" values="1,1;1,1;9.736,9.736;8.386,8.386;8.386,8.386" keySplines="0 0 1 1;0.01 0.01 1 0.2;0 0.8 0.99 0.99;1 0 1 0" calcMode="spline"/>
            </g>
            <animate attributeName="display" begin="0s" repeatCount="1" dur="1.533s" keyTimes="0;0.457;1" values="none;inline;none"/>
          </g>
          <g id="dotted-line_2_30">
            <g id="element6" overflow="visible" transform="matrix(0.1999969482421875 0 0 0.1999969482421875 14.95 15.6)">
              <g id="LEAF2_0">
                <g id="element26">
                  <path id="path26" fill="#013B23" d="M1.9,0.2 L0.35,0.55 L0.1,2.05 L0.35,0.55 C0.35,0.55 -2.15,9.55 6.65,14.6 14.5,19.15 14.55,15.2 17.8,17.65 L18.9,18.7 18.15,17.9 19.1,18.8 17.95,17.65 C15.1,14.15 19.4,14.25 14.7,6.2 9.65,-2.6 0.35,0.55 0.35,0.55 "/>
                </g>
              </g>
              <animateTransform attributeName="transform" additive="sum" type="translate" begin="0s" repeatCount="1" dur="1.533s" keyTimes="0;0.326;0.478;0.511;1" values="0.05,0.05;0.05,0.05;-104.699,-100.199;-79.199,-75.949;-79.199,-75.949" keySplines="0 0 1 1;0.01 0.01 1 0.2;0 0.8 0.99 0.99;1 0 1 0" calcMode="spline"/>
              <animateTransform attributeName="transform" additive="sum" type="rotate" begin="0s" repeatCount="1" dur="1.533s" keyTimes="0;0.326;0.478;1" values="0,19.75,19;0,19.75,19;0,19.85,19;0,19.85,19" keySplines="0 0 1 1;0.01 0.01 1 0.2;1 0 1 0" calcMode="spline"/>
              <animateTransform attributeName="transform" additive="sum" type="scale" begin="0s" repeatCount="1" dur="1.533s" keyTimes="0;0.326;0.478;0.511;1" values="1,1;1,1;6.289,6.289;5,5;5,5" keySplines="0 0 1 1;0.01 0.01 1 0.2;0 0.8 0.99 0.99;1 0 1 0" calcMode="spline"/>
            </g>
            <animate attributeName="display" begin="0s" repeatCount="1" dur="1.533s" keyTimes="0;0.326;1" values="none;inline;none"/>
          </g>
          <g id="dotted-line_1_18">
            <g id="element5" overflow="visible" transform="matrix(0.1152801513671875 0 0 0.126983642578125 16.75 19.4)">
              <g id="leaf1_0">
                <g id="element25">
                  <g id="group2">
                    <g id="drawingObject19" transform="matrix(1 0 0 1 -6967.799 -7175.599)">
                      <path id="path25" fill="#03874B" d="M6986.175,7175.875 L6985.5,7176.6 C6982,7179.45 6982.1,7175.15 6974.05,7179.8 6965.25,7184.9 6968.4,7194.2 6968.4,7194.2 L6969.9,7194.45 L6968.4,7194.2 C6968.4,7194.2 6977.35,7196.7 6982.45,7187.9 6987,7180.05 6983.05,7179.95 6985.5,7176.7 L6986.5,7175.65 6985.75,7176.35 6986.175,7175.875z "/>
                    </g>
                  </g>
                </g>
              </g>
              <animateTransform attributeName="transform" additive="sum" type="translate" begin="0s" repeatCount="1" dur="1.533s" keyTimes="0;0.196;0.348;0.381;1" values="0.05,0.05;0.05,0.05;-185.149,0.05;-143.099,0.05;-143.099,0.05" keySplines="0 0 1 1;0.01 0.01 1 0.2;0 0.8 0.99 0.99;1 0 1 0" calcMode="spline"/>
              <animateTransform attributeName="transform" additive="sum" type="scale" begin="0s" repeatCount="1" dur="1.533s" keyTimes="0;0.196;0.348;0.381;1" values="1,1;1,1;10.954,9.729;8.675,7.875;8.675,7.875" keySplines="0 0 1 1;0.01 0.01 1 0.2;0 0.8 0.99 0.99;1 0 1 0" calcMode="spline"/>
            </g>
            <animate attributeName="display" begin="0s" repeatCount="1" dur="1.533s" keyTimes="0;0.196;1" values="none;inline;none"/>
          </g>
          <g id="dotted-line_0_0">
            <g id="element4" overflow="visible" transform="matrix(1 0 0 1 18.7 -3.499)">
              <g id="line_0">
                <g id="element23" transform="matrix(1 0 0 1 -175.049 -371.199)">
                  <path id="path23" fill="none" stroke="#013B23" stroke-linecap="round" stroke-linejoin="miter" stroke-miterlimit="4" d="M399.9,371.25 C399.9,382.4 382.95,385 382.95,385 M385.6,384.4 L382.95,385 175.1,385 " stroke-opacity="0"/>
                </g>
                <g id="element24" transform="matrix(1 0 0 1 -6986.249 -7161.699)">
                  <path id="path24" fill="none" stroke="#1A171B" stroke-linecap="round" stroke-linejoin="miter" stroke-miterlimit="4" d="M7436.1,7175.5 L7228.3,7175.5 C7228.3,7175.5 7211.3,7172.9 7211.3,7161.75 " stroke-opacity="0"/>
                </g>
              </g>
              <animateTransform attributeName="transform" additive="sum" type="translate" begin="0s" repeatCount="1" dur="1.533s" keyTimes="0;0.196;1" values="0.05,0;0.05,8.95;0.05,8.95" keySplines="0 0.8 0.99 0.99;1 0 1 0" calcMode="spline"/>
              <animate attributeName="opacity" begin="0s" repeatCount="1" dur="1.533s" keyTimes="0;0.196;1" values="0;1;1" keySplines="0 0.8 0.99 0.99;1 0 1 0" calcMode="spline"/>
            </g>
          </g>
        </g>
      </g>
    </g>
  </g>
  <defs>
    <filter id="filter" filterUnits="objectBoundingBox" width="100%" height="100%" x="0%" y="0%">
      <feColorMatrix id="feColorMatrix" type="matrix" in="SourceGraphic" values="1 0 0 0 0 0 1 0 0 0 0 0 1 0 0 0 0 0 9999999999999.99 0" result="colorEffect_percent"/>
      <feComponentTransfer id="feComponentTransfer" in="colorEffect_percent" result="colorEffect_amount">
        <feFuncR id="feFuncR" type="linear" slope="1" intercept="1"/>
        <feFuncG id="feFuncG" type="linear" slope="1" intercept="1"/>
        <feFuncB id="feFuncB" type="linear" slope="1" intercept="1"/>
        <feFuncA id="feFuncA" type="linear" slope="1" intercept="0"/>
      </feComponentTransfer>
    </filter>
    <filter id="filter1" filterUnits="objectBoundingBox" width="100%" height="100%" x="0%" y="0%">
      <feColorMatrix id="feColorMatrix1" type="matrix" in="SourceGraphic" values="1 0 0 0 0 0 1 0 0 0 0 0 1 0 0 0 0 0 0 0" result="colorEffect_percent"/>
    </filter>
  </defs>
</svg>