<?xml version="1.0" encoding="utf-8"?>
<!-- Generator: Adobe Illustrator 13.0.0, SVG Export Plug-In . SVG Version: 6.00 Build 14948)  -->
<!DOCTYPE svg PUBLIC "-//W3C//DTD SVG 1.1//EN" "http://www.w3.org/Graphics/SVG/1.1/DTD/svg11.dtd">
<svg version="1.1" id="Calque_1" xmlns="http://www.w3.org/2000/svg" xmlns:xlink="http://www.w3.org/1999/xlink" x="0px" y="0px" viewBox="0 0 488.193 39.228" enable-background="new 0 0 488.193 39.228"
	 xml:space="preserve">
<g transform="scale(1) translate(-12.694, -37.565)">
	<path fill="none" stroke="#013B23" stroke-dasharray="2,2" d="M19.174,19.711h207.843c0,0,16.994-2.614,16.994-13.726"/>
	<g>
		<g>
			<path fill="#013B23" d="M18.647,18.679c0.289,0.24,0.6,0.522,0.944,0.866l-1.162-1.128c-2.847-3.506,1.443-3.388-3.226-11.452
				C10.12-1.816,0.828,1.327,0.828,1.327s-2.496,8.976,6.285,14.06c7.856,4.547,7.947,0.593,11.188,3.018l1.063,1.039
				C19.09,19.17,18.854,18.917,18.647,18.679z"/>
		</g>
	</g>
	<g>
		<g>
			<path fill="#03874B" d="M19.402,19.865c-0.273,0.273-0.526,0.509-0.764,0.716c0.24-0.289,0.522-0.6,0.866-0.944l-1.128,1.163
				c-3.506,2.847-3.388-1.443-11.452,3.225C-1.857,29.108,1.286,38.4,1.286,38.4s8.976,2.496,14.06-6.285
				c4.547-7.856,0.593-7.947,3.018-11.188L19.402,19.865z"/>
		</g>
	</g>
	<g>
		<g>
			<path fill="#013B23" d="M481.08,23.842c-7.855-4.547-7.946-0.594-11.186-3.017l-1.064-1.04c0.274,0.274,0.51,0.527,0.717,0.766
				c-0.289-0.24-0.601-0.523-0.945-0.868l1.165,1.131c2.843,3.503-1.444,3.387,3.224,11.449c5.083,8.781,14.375,5.639,14.375,5.639
				S489.861,28.926,481.08,23.842z"/>
		</g>
	</g>
	<g>
		<g>
			<path fill="#03874B" d="M486.908,0.828c0,0-8.977-2.496-14.061,6.285c-4.546,7.855-0.594,7.947-3.017,11.187l-1.04,1.064
				c0.274-0.274,0.527-0.51,0.766-0.717c-0.24,0.289-0.522,0.6-0.867,0.945l1.131-1.165c3.503-2.842,3.388,1.444,11.449-3.223
				C490.05,10.12,486.908,0.828,486.908,0.828z"/>
		</g>
	</g>
	<path fill="none" stroke="#1A171B" stroke-dasharray="2,2" d="M469.011,19.71H261.168c0,0-16.994-2.613-16.994-13.725"/>
</g>
</svg>
