<?xml version="1.0" encoding="utf-8"?>
<!-- Generator: Adobe Illustrator 13.0.0, SVG Export Plug-In . SVG Version: 6.00 Build 14948)  -->
<!DOCTYPE svg PUBLIC "-//W3C//DTD SVG 1.1//EN" "http://www.w3.org/Graphics/SVG/1.1/DTD/svg11.dtd">
<svg version="1.1" id="Calque_1" xmlns="http://www.w3.org/2000/svg" xmlns:xlink="http://www.w3.org/1999/xlink" x="0px" y="0px" viewBox="0 0 25.388 75.13" enable-background="new 0 0 25.388 75.13" xml:space="preserve">
<g transform="scale(0.065) translate(-12.694, -37.565)">
	<path fill="#020102" d="M9.058,0.955c4.532-2.789,10.959,0.917,11.21,6.146c-3.373-0.265-6.488-1.955-8.103-4.979
		c-1.189,3.16-4.214,5.093-7.571,5.002C5.443,4.706,6.497,2.008,9.058,0.955L9.058,0.955z"/>
	<path fill="#EDD5BB" d="M4.594,7.124c3.357,0.091,6.382-1.842,7.571-5.002c1.614,3.024,4.729,4.714,8.103,4.979
		c-0.273,1.842-0.334,3.85-1.555,5.374c-2.675,3.63-8.708,3.842-11.671,0.462C5.344,11.474,5.042,9.178,4.594,7.124L4.594,7.124z"/>
	<path fill="#020102" d="M0.077,24.624c0.008-3.873,3.449-6.571,6.912-7.48c1.818,5.752,3.57,11.521,5.222,17.326
		c2.115-5.54,3.653-11.277,5.594-16.871l0.183-0.553c3.607,0.856,6.979,3.524,7.245,7.458c0.265,6.101,0.12,12.225,0.083,18.333
		c0.106,3.039-2.047,5.404-4.411,7.003c-0.272,7.813,0.395,15.688-0.341,23.464c-1.903,2.055-4.941,1.563-7.45,1.736
		c-0.242-8.541,0.395-17.129-0.355-25.64c-0.402,1.054-0.607,2.145-0.63,3.274c-0.144,7.48,0.372,14.99-0.311,22.456
		c-2.334-0.114-4.646-0.493-6.92-1.062c-1.531-7.949-0.105-16.135-0.818-24.154c-1.773-1.773-4.085-3.547-4.002-6.336
		C-0.022,37.266-0.029,30.937,0.077,24.624L0.077,24.624z"/>
	<path fill="#F8F2EA" d="M6.989,17.143c0.713-0.068,2.138-0.205,2.851-0.272c-0.023,0.962-0.054,1.917-0.085,2.88
		c1.698-0.705,3.487-0.667,5.2-0.022c-0.053-1.046-0.099-2.1-0.137-3.138c1.039,0.22,2.032,0.561,2.986,1.008
		c-1.94,5.593-3.479,11.331-5.594,16.871C10.559,28.664,8.807,22.896,6.989,17.143L6.989,17.143z"/>
	<path fill="#F8F2EA" d="M16.44,27.08c0.773-1.001,1.562-1.986,2.342-2.971c0.554,1.016,1.122,2.031,1.668,3.046
		C19.116,27.132,17.773,27.109,16.44,27.08L16.44,27.08z"/>
	<path fill="#F8F2EA" d="M9.781,16.895c0,0,1.27-0.544,5.076-0.272c3.859,0.275,0.454,3.264,0.454,3.264L9.599,20.25L9.781,16.895z"
		/>
	<ellipse fill="#020102" cx="12.161" cy="22.426" rx="0.748" ry="0.77"/>
	<ellipse fill="#020102" cx="12.161" cy="26.007" rx="0.748" ry="0.771"/>
	<ellipse fill="#020102" cx="12.161" cy="29.814" rx="0.748" ry="0.771"/>
	<polygon fill="#020102" points="10.357,19.706 10.357,16.034 12.375,18.051 	"/>
	<polyline fill="#020102" points="12.295,18.155 14.313,19.809 14.313,16.137 	"/>
</g>
</svg>
